<?xml version="1.0" encoding="UTF-8"?>
<svg version="1.1" xmlns="http://www.w3.org/2000/svg" width="483" height="483">
<path d="M0 0 C0.83815247 0.00060425 1.67630493 0.0012085 2.53985596 0.00183105 C15.98720128 0.02807852 29.27832013 0.41136303 42.625 2.1875 C43.56843262 2.31108887 44.51186523 2.43467773 45.48388672 2.56201172 C100.82622178 10.11993697 156.21315065 35.28934478 190.79492188 80.50561523 C225.38740692 126.94226636 231.83405092 185.03177445 223.8125 241.1640625 C217.63464136 280.7908982 202.51388061 318.07073935 174.96875 347.65625 C172.91682614 349.87232777 170.95033694 352.13255634 169 354.4375 C165.52031545 358.42581594 161.67951848 361.79708368 157.625 365.1875 C156.34882812 366.29544922 156.34882812 366.29544922 155.046875 367.42578125 C127.4310199 391.08034566 94.9725774 406.92865552 61.875 421.375 C60.9998172 421.75724731 60.1246344 422.13949463 59.22293091 422.5333252 C56.71830149 423.6244975 54.21134545 424.71007969 51.703125 425.79296875 C50.94686325 426.1215538 50.1906015 426.45013885 49.41142273 426.78868103 C46.17538973 428.17705366 43.05538259 429.3989209 39.625 430.1875 C39.4297876 429.45450684 39.2345752 428.72151367 39.03344727 427.96630859 C34.61275221 411.53193572 29.62745429 395.73433973 22.625 380.1875 C22.23054688 379.30513672 21.83609375 378.42277344 21.4296875 377.51367188 C16.54093295 366.6716759 11.15493831 356.24665106 5.02783203 346.05004883 C4.36050049 344.93666138 4.36050049 344.93666138 3.6796875 343.80078125 C3.28249512 343.14891846 2.88530273 342.49705566 2.47607422 341.82543945 C1.625 340.1875 1.625 340.1875 1.625 338.1875 C2.33293701 337.93693848 3.04087402 337.68637695 3.77026367 337.42822266 C38.75368926 324.96744349 70.63324792 309.13790362 97.625 283.1875 C98.56859375 282.33865234 98.56859375 282.33865234 99.53125 281.47265625 C114.60948421 267.49684011 125.41327864 246.86916319 130.625 227.1875 C130.94210937 226.02089844 131.25921875 224.85429687 131.5859375 223.65234375 C138.24233243 194.61458421 132.97486009 164.43512021 117.79931641 139.02978516 C99.9548941 111.03518833 71.36674694 94.65893103 40.625 84.1875 C40.5019751 85.08770874 40.5019751 85.08770874 40.37646484 86.00610352 C38.68495017 97.19176603 35.90665265 108.13774234 33.25 119.125 C32.98589325 120.21996796 32.7217865 121.31493591 32.44967651 122.44308472 C23.50536167 159.45428519 13.70304546 196.06649558 1.625 232.1875 C1.38501282 232.90639404 1.14502563 233.62528809 0.89776611 234.3659668 C-14.96368789 281.74871759 -34.63375582 331.34447236 -69.375 368.1875 C-70.05820313 368.93515625 -70.74140625 369.6828125 -71.4453125 370.453125 C-85.94637408 385.75682837 -104.61975552 395.66102586 -125.9375 396.4375 C-152.59888382 395.94904717 -173.4744828 379.33453684 -191.390625 361.140625 C-193.14498652 359.21593712 -194.76457522 357.23494176 -196.375 355.1875 C-197.01985352 354.37853271 -197.01985352 354.37853271 -197.67773438 353.55322266 C-205.29312203 343.94248143 -211.77391949 334.09195543 -217.375 323.1875 C-217.72014648 322.5270166 -218.06529297 321.8665332 -218.42089844 321.18603516 C-227.85443629 302.95229087 -233.35677728 283.44146657 -236.375 263.1875 C-236.49214355 262.4135791 -236.60928711 261.6396582 -236.72998047 260.84228516 C-244.71228883 205.17962078 -233.92048108 140.57025269 -199.95581055 94.77685547 C-198.77823063 93.23470193 -197.57693673 91.71074655 -196.375 90.1875 C-195.61445313 89.218125 -194.85390625 88.24875 -194.0703125 87.25 C-153.95186523 37.27546361 -97.52897085 8.68558665 -34.08398438 1.4699707 C-22.70615939 0.2835843 -11.42804218 -0.01525509 0 0 Z M-83.375 100.1875 C-84.44363281 100.76371094 -85.51226562 101.33992188 -86.61328125 101.93359375 C-120.13566446 120.76004243 -142.85228246 151.16103969 -153.67919922 187.67041016 C-161.47020044 215.85469879 -161.66356706 249.6964766 -147.828125 276.14453125 C-143.35808532 283.0915259 -138.14201346 288.86332959 -130 291.125 C-125.36199503 291.2049656 -122.77773874 290.19325255 -119.375 287.1875 C-83.99071665 248.16071689 -69.59043381 177.70136309 -55.8125 128.3125 C-55.57046844 127.44664276 -55.32843689 126.58078552 -55.07907104 125.68869019 C-52.38838853 116.01895235 -49.87267831 106.31602433 -47.53515625 96.5546875 C-47.31758163 95.64751984 -47.10000702 94.74035217 -46.87583923 93.80569458 C-46.67841629 92.96859955 -46.48099335 92.13150452 -46.27758789 91.26904297 C-46.01529137 90.15721146 -46.01529137 90.15721146 -45.74769592 89.0229187 C-45.3086678 87.17297925 -45.3086678 87.17297925 -45.375 85.1875 C-57.92875963 85.1875 -72.52677714 94.30951916 -83.375 100.1875 Z " fill="#FFFFFF" transform="translate(247.375,26.8125)"/>
</svg>
